{"accessors" : [{"bufferView" : 0, "byteOffset" : 0, "componentType" : 5123, "count" : 132, "type" : "SCALAR", "max" : [114], "min" : [0]}, {"bufferView" : 1, "byteOffset" : 0, "componentType" : 5126, "count" : 115, "type" : "VEC3", "max" : [0.35934001207351685, 0.7139999866485596, 0.05000000074505806], "min" : [-0.3779189884662628, 0, -0.05000000074505806], "name" : "POSITION"}, {"bufferView" : 1, "byteOffset" : 12, "componentType" : 5126, "count" : 115, "type" : "VEC2", "max" : [5.250502109527588, 9.094308853149414], "min" : [-7.441710948944092, -10.094308853149414], "name" : "TEXCOORD_0"}, {"bufferView" : 1, "byteOffset" : 20, "componentType" : 5126, "count" : 115, "type" : "VEC3", "max" : [0.9196242690086365, 1.0000044107437134, 1.0000044107437134], "min" : [-0.9196242690086365, -1.0000044107437134, -1.0000044107437134], "name" : "NORMAL"}, {"bufferView" : 0, "byteOffset" : 264, "componentType" : 5123, "count" : 7044, "type" : "SCALAR", "max" : [6283], "min" : [0]}, {"bufferView" : 2, "byteOffset" : 0, "componentType" : 5126, "count" : 6284, "type" : "VEC3", "max" : [0.38999998569488525, 0.7200000286102295, 0.07999999821186066], "min" : [-0.38999998569488525, 0.7139999866485596, -0.08999600261449814], "name" : "POSITION"}, {"bufferView" : 2, "byteOffset" : 12, "componentType" : 5126, "count" : 6284, "type" : "VEC2", "max" : [2.7003679275512695, -0.02099199965596199], "min" : [-1.6936880350112915, -0.9786499738693237], "name" : "TEXCOORD_0"}, {"bufferView" : 2, "byteOffset" : 20, "componentType" : 5126, "count" : 6284, "type" : "VEC3", "max" : [1.0000044107437134, 1.0000044107437134, 1.0000044107437134], "min" : [-1.0000044107437134, -1.0000044107437134, -1.0000044107437134], "name" : "NORMAL"}, {"bufferView" : 0, "byteOffset" : 14352, "componentType" : 5123, "count" : 264, "type" : "SCALAR", "max" : [228], "min" : [0]}, {"bufferView" : 3, "byteOffset" : 0, "componentType" : 5126, "count" : 229, "type" : "VEC3", "max" : [0.3779189884662628, 0.7139999866485596, 0.05000000074505806], "min" : [-0.35934001207351685, 0, -0.05000000074505806], "name" : "POSITION"}, {"bufferView" : 3, "byteOffset" : 12, "componentType" : 5126, "count" : 229, "type" : "VEC2", "max" : [8.259992599487305, 9.094308853149414], "min" : [-3.703212022781372, -1.7603410482406616], "name" : "TEXCOORD_0"}, {"bufferView" : 3, "byteOffset" : 20, "componentType" : 5126, "count" : 229, "type" : "VEC3", "max" : [1.0000044107437134, 1.0000044107437134, 1.0000044107437134], "min" : [-1.0000044107437134, -1.0000044107437134, -1.0000044107437134], "name" : "NORMAL"}], "asset" : {"generator" : "Aspose.3D 22.7", "version" : "2.0"}, "buffers" : [{"uri" : "data:application/octet-stream;base64,", "byteLength" : 252976}], "bufferViews" : [{"buffer" : 0, "byteOffset" : 0, "byteLength" : 14880, "target" : 34963}, {"buffer" : 0, "byteOffset" : 14884, "byteLength" : 4224, "byteStride" : 32, "target" : 34962}, {"buffer" : 0, "byteOffset" : 19112, "byteLength" : 225408, "byteStride" : 32, "target" : 34962}, {"buffer" : 0, "byteOffset" : 244524, "byteLength" : 8448, "byteStride" : 32, "target" : 34962}], "meshes" : [{"primitives" : [{"attributes" : {"POSITION" : 1, "TEXCOORD_0" : 2, "NORMAL" : 3}, "indices" : 0, "mode" : 4}], "name" : ""}, {"primitives" : [{"attributes" : {"POSITION" : 5, "TEXCOORD_0" : 6, "NORMAL" : 7}, "indices" : 4, "mode" : 4}], "name" : ""}, {"primitives" : [{"attributes" : {"POSITION" : 9, "TEXCOORD_0" : 10, "NORMAL" : 11}, "indices" : 8, "mode" : 4}], "name" : ""}], "nodes" : [{"mesh" : 0, "name" : "Cube.209_Cube.101"}, {"mesh" : 1, "name" : "Cube.228_Cube.105"}, {"mesh" : 2, "name" : "Cube.229_Cube.108"}], "scene" : 0, "scenes" : [{"nodes" : [0, 1, 2]}]}