{"accessors" : [{"bufferView" : 0, "byteOffset" : 0, "componentType" : 5123, "count" : 264, "type" : "SCALAR", "max" : [227], "min" : [0]}, {"bufferView" : 1, "byteOffset" : 0, "componentType" : 5126, "count" : 228, "type" : "VEC3", "max" : [0.3700000047683716, 0.7139999866485596, 0.05000000074505806], "min" : [-0.3700000047683716, 0, -0.05000000074505806], "name" : "POSITION"}, {"bufferView" : 1, "byteOffset" : 12, "componentType" : 5126, "count" : 228, "type" : "VEC2", "max" : [6.980712890625, 8.63806438446045], "min" : [-3.990638017654419, -8.710371017456055], "name" : "TEXCOORD_0"}, {"bufferView" : 1, "byteOffset" : 20, "componentType" : 5126, "count" : 228, "type" : "VEC3", "max" : [1.0000044107437134, 1.0000044107437134, 1.0000044107437134], "min" : [-1.0000044107437134, -1.0000044107437134, -1.0000044107437134], "name" : "NORMAL"}, {"bufferView" : 0, "byteOffset" : 528, "componentType" : 5123, "count" : 132, "type" : "SCALAR", "max" : [113], "min" : [0]}, {"bufferView" : 2, "byteOffset" : 0, "componentType" : 5126, "count" : 114, "type" : "VEC3", "max" : [0.33000001311302185, 0.03999999910593033, 0.05000000074505806], "min" : [-0.33000001311302185, 0, -0.05000000074505806], "name" : "POSITION"}, {"bufferView" : 2, "byteOffset" : 12, "componentType" : 5126, "count" : 114, "type" : "VEC2", "max" : [8.809269905090332, 8.638065338134766], "min" : [0.5807579755783081, -8.710371971130371], "name" : "TEXCOORD_0"}, {"bufferView" : 2, "byteOffset" : 20, "componentType" : 5126, "count" : 114, "type" : "VEC3", "max" : [1.0000044107437134, 1.0000044107437134, 1.0000044107437134], "min" : [-1.0000044107437134, -1.0000044107437134, -1.0000044107437134], "name" : "NORMAL"}, {"bufferView" : 0, "byteOffset" : 792, "componentType" : 5123, "count" : 7044, "type" : "SCALAR", "max" : [6285], "min" : [0]}, {"bufferView" : 3, "byteOffset" : 0, "componentType" : 5126, "count" : 6286, "type" : "VEC3", "max" : [0.38999998569488525, 0.7200000286102295, 0.07999999821186066], "min" : [-0.38999998569488525, 0.7139999866485596, -0.08999600261449814], "name" : "POSITION"}, {"bufferView" : 3, "byteOffset" : 12, "componentType" : 5126, "count" : 6286, "type" : "VEC2", "max" : [5.808907985687256, 4.376543045043945], "min" : [-4.808907985687256, -5.286633014678955], "name" : "TEXCOORD_0"}, {"bufferView" : 3, "byteOffset" : 20, "componentType" : 5126, "count" : 6286, "type" : "VEC3", "max" : [1.0000044107437134, 1.0000044107437134, 1.0000044107437134], "min" : [-1.0000044107437134, -1.0000044107437134, -1.0000044107437134], "name" : "NORMAL"}], "asset" : {"generator" : "Aspose.3D 22.7", "version" : "2.0"}, "buffers" : [{"uri" : "data:application/octet-stream;base64,", "byteLength" : 252976}], "bufferViews" : [{"buffer" : 0, "byteOffset" : 0, "byteLength" : 14880, "target" : 34963}, {"buffer" : 0, "byteOffset" : 14884, "byteLength" : 8448, "byteStride" : 32, "target" : 34962}, {"buffer" : 0, "byteOffset" : 23336, "byteLength" : 4224, "byteStride" : 32, "target" : 34962}, {"buffer" : 0, "byteOffset" : 27564, "byteLength" : 225408, "byteStride" : 32, "target" : 34962}], "meshes" : [{"primitives" : [{"attributes" : {"POSITION" : 1, "TEXCOORD_0" : 2, "NORMAL" : 3}, "indices" : 0, "mode" : 4}], "name" : ""}, {"primitives" : [{"attributes" : {"POSITION" : 5, "TEXCOORD_0" : 6, "NORMAL" : 7}, "indices" : 4, "mode" : 4}], "name" : ""}, {"primitives" : [{"attributes" : {"POSITION" : 9, "TEXCOORD_0" : 10, "NORMAL" : 11}, "indices" : 8, "mode" : 4}], "name" : ""}], "nodes" : [{"mesh" : 0, "name" : "Cube.190_Cube.189"}, {"mesh" : 1, "name" : "Cube.240_Cube.192"}, {"mesh" : 2, "name" : "Cube.255_Cube.193"}], "scene" : 0, "scenes" : [{"nodes" : [0, 1, 2]}]}